<svg width="20" height="20" viewBox="0 0 20 20" fill="none" xmlns="http://www.w3.org/2000/svg">
<g id="Icon" clip-path="url(#clip0_10_15)">
<path id="Vector" d="M15 -1.90735e-06H5C4.11111 -1.90735e-06 3.27778 0.222221 2.5 0.666666C1.72222 1.11111 1.11111 1.72222 0.666667 2.5C0.222222 3.27778 0 4.11111 0 5V15C0 15.8889 0.222222 16.7222 0.666667 17.5C1.11111 18.2778 1.72222 18.8889 2.5 19.3333C3.27778 19.7778 4.11111 20 5 20H15C15.8889 20 16.7222 19.7778 17.5 19.3333C18.2778 18.8889 18.8889 18.2778 19.3333 17.5C19.7778 16.7222 20 15.8889 20 15V5C20 4.11111 19.7778 3.27778 19.3333 2.5C18.8889 1.72222 18.2778 1.11111 17.5 0.666666C16.7222 0.222221 15.8889 -1.90735e-06 15 -1.90735e-06ZM18.3333 15C18.3333 15.9333 18.0111 16.7222 17.3667 17.3667C16.7222 18.0111 15.9333 18.3333 15 18.3333H5C4.06667 18.3333 3.27778 18.0111 2.63333 17.3667C1.98889 16.7222 1.66667 15.9333 1.66667 15V5C1.66667 4.06667 1.98889 3.27778 2.63333 2.63333C3.27778 1.98889 4.06667 1.66667 5 1.66667H15C15.9333 1.66667 16.7222 1.98889 17.3667 2.63333C18.0111 3.27778 18.3333 4.06667 18.3333 5V15ZM14.2 4.6C14.2 4.95555 14.3111 5.24444 14.5333 5.46667C14.7556 5.68889 15.0444 5.8 15.4 5.8C15.7556 5.8 16.0556 5.68889 16.3 5.46667C16.5444 5.24444 16.6667 4.95555 16.6667 4.6C16.6667 4.24444 16.5444 3.94444 16.3 3.7C16.0556 3.45555 15.7556 3.33333 15.4 3.33333C15.0444 3.33333 14.7556 3.45555 14.5333 3.7C14.3111 3.94444 14.2 4.24444 14.2 4.6ZM10 5C9.11111 5 8.27778 5.22222 7.5 5.66667C6.72222 6.11111 6.11111 6.72222 5.66667 7.5C5.22222 8.27778 5 9.11111 5 10C5 10.8889 5.22222 11.7222 5.66667 12.5C6.11111 13.2778 6.72222 13.8889 7.5 14.3333C8.27778 14.7778 9.11111 15 10 15C10.8889 15 11.7222 14.7778 12.5 14.3333C13.2778 13.8889 13.8889 13.2778 14.3333 12.5C14.7778 11.7222 15 10.8889 15 10C15 9.11111 14.7778 8.27778 14.3333 7.5C13.8889 6.72222 13.2778 6.11111 12.5 5.66667C11.7222 5.22222 10.8889 5 10 5ZM10 13.3333C9.06667 13.3333 8.27778 13.0111 7.63333 12.3667C6.98889 11.7222 6.66667 10.9333 6.66667 10C6.66667 9.06667 6.98889 8.27778 7.63333 7.63333C8.27778 6.98889 9.06667 6.66667 10 6.66667C10.9333 6.66667 11.7222 6.98889 12.3667 7.63333C13.0111 8.27778 13.3333 9.06667 13.3333 10C13.3333 10.9333 13.0111 11.7222 12.3667 12.3667C11.7222 13.0111 10.9333 13.3333 10 13.3333Z" fill="white"/>
</g>
<defs>
<clipPath id="clip0_10_15">
<rect width="20" height="20" fill="white" transform="matrix(1 0 0 -1 0 20)"/>
</clipPath>
</defs>
</svg>
