<svg width="20" height="20" viewBox="0 0 20 20" fill="none" xmlns="http://www.w3.org/2000/svg">
<g id="Icon" clip-path="url(#clip0_10_21)">
<path id="Vector" d="M20 20V12.6667C20 11.3333 19.8889 10.2444 19.6667 9.4C19.3556 8.42222 18.8667 7.66667 18.2 7.13333C17.4 6.6 16.3333 6.33333 15 6.33333C14.0667 6.33333 13.2444 6.55555 12.5333 7C11.9111 7.4 11.4444 7.88889 11.1333 8.46667H11.0667V6.66667H7.06667V20H11.2V13.4C11.2 12.3333 11.3556 11.5333 11.6667 11C12.0667 10.2889 12.7444 9.93333 13.7 9.93333C14.6556 9.93333 15.2889 10.3333 15.6 11.1333C15.7778 11.6222 15.8667 12.4 15.8667 13.4667V20H20ZM0.333333 6.66667H4.46667V20H0.333333V6.66667ZM2.4 -1.90735e-06C1.73333 -1.90735e-06 1.16667 0.233332 0.7 0.699999C0.233333 1.16667 0 1.73333 0 2.4C0 3.06667 0.233333 3.63333 0.7 4.1C1.16667 4.56667 1.73333 4.8 2.4 4.8C3.06667 4.8 3.63333 4.56667 4.1 4.1C4.56667 3.63333 4.8 3.06667 4.8 2.4C4.8 1.73333 4.56667 1.16667 4.1 0.699999C3.63333 0.233332 3.06667 -1.90735e-06 2.4 -1.90735e-06Z" fill="white"/>
</g>
<defs>
<clipPath id="clip0_10_21">
<rect width="20" height="20" fill="white" transform="matrix(1 0 0 -1 0 20)"/>
</clipPath>
</defs>
</svg>
